<svg width="223" height="69" viewBox="0 0 223 69" fill="none" xmlns="http://www.w3.org/2000/svg">
<path d="M85.7931 49.576C83.7131 49.576 82.0331 48.952 80.7531 47.704C79.4731 46.424 78.8331 44.744 78.8331 42.664C78.8331 41.416 79.0891 40.312 79.6011 39.352C80.1451 38.36 80.9771 37.512 82.0971 36.808C83.2491 36.104 84.6891 35.512 86.4171 35.032C88.1771 34.552 90.2731 34.184 92.7051 33.928C92.6731 33.32 92.5771 32.744 92.4171 32.2C92.2891 31.624 92.0491 31.128 91.6971 30.712C91.3771 30.264 90.9451 29.928 90.4011 29.704C89.8571 29.448 89.1851 29.32 88.3851 29.32C87.2331 29.32 86.0971 29.544 84.9771 29.992C83.8891 30.44 82.8171 30.984 81.7611 31.624L79.7451 27.928C81.0571 27.096 82.5291 26.376 84.1611 25.768C85.7931 25.16 87.5531 24.856 89.4411 24.856C92.3851 24.856 94.5771 25.736 96.0171 27.496C97.4891 29.224 98.2251 31.736 98.2251 35.032V49H93.6651L93.2811 46.408H93.0891C92.0331 47.304 90.8971 48.056 89.6811 48.664C88.4971 49.272 87.2011 49.576 85.7931 49.576ZM87.5691 45.256C88.5291 45.256 89.3931 45.032 90.1611 44.584C90.9611 44.136 91.8091 43.496 92.7051 42.664V37.384C91.1051 37.576 89.7611 37.832 88.6731 38.152C87.5851 38.472 86.7051 38.84 86.0331 39.256C85.3611 39.64 84.8811 40.088 84.5931 40.6C84.3051 41.112 84.1611 41.656 84.1611 42.232C84.1611 43.288 84.4811 44.056 85.1211 44.536C85.7611 45.016 86.5771 45.256 87.5691 45.256ZM116.255 49.576C115.167 49.576 114.063 49.32 112.943 48.808C111.855 48.264 110.815 47.496 109.823 46.504H109.679L109.199 49H104.831V15.112H110.351V23.848L110.207 27.784C111.199 26.92 112.271 26.216 113.423 25.672C114.607 25.128 115.807 24.856 117.023 24.856C118.495 24.856 119.807 25.144 120.959 25.72C122.111 26.264 123.087 27.064 123.887 28.12C124.687 29.144 125.295 30.392 125.711 31.864C126.127 33.336 126.335 34.984 126.335 36.808C126.335 38.824 126.047 40.632 125.471 42.232C124.927 43.8 124.191 45.128 123.263 46.216C122.335 47.304 121.263 48.136 120.047 48.712C118.831 49.288 117.567 49.576 116.255 49.576ZM115.103 45.016C116.671 45.016 117.983 44.344 119.039 43C120.095 41.624 120.623 39.592 120.623 36.904C120.623 34.536 120.223 32.696 119.423 31.384C118.623 30.072 117.327 29.416 115.535 29.416C113.871 29.416 112.143 30.296 110.351 32.056V43.048C111.183 43.784 111.999 44.296 112.799 44.584C113.631 44.872 114.399 45.016 115.103 45.016ZM137.027 49.576C134.947 49.576 133.267 48.952 131.987 47.704C130.707 46.424 130.067 44.744 130.067 42.664C130.067 41.416 130.323 40.312 130.835 39.352C131.379 38.36 132.211 37.512 133.331 36.808C134.483 36.104 135.923 35.512 137.651 35.032C139.411 34.552 141.507 34.184 143.939 33.928C143.907 33.32 143.811 32.744 143.651 32.2C143.523 31.624 143.283 31.128 142.931 30.712C142.611 30.264 142.179 29.928 141.635 29.704C141.091 29.448 140.419 29.32 139.619 29.32C138.467 29.32 137.331 29.544 136.211 29.992C135.123 30.44 134.051 30.984 132.995 31.624L130.979 27.928C132.291 27.096 133.763 26.376 135.395 25.768C137.027 25.16 138.787 24.856 140.675 24.856C143.619 24.856 145.811 25.736 147.251 27.496C148.723 29.224 149.459 31.736 149.459 35.032V49H144.899L144.515 46.408H144.323C143.267 47.304 142.131 48.056 140.915 48.664C139.731 49.272 138.435 49.576 137.027 49.576ZM138.803 45.256C139.763 45.256 140.627 45.032 141.395 44.584C142.195 44.136 143.043 43.496 143.939 42.664V37.384C142.339 37.576 140.995 37.832 139.907 38.152C138.819 38.472 137.939 38.84 137.267 39.256C136.595 39.64 136.115 40.088 135.827 40.6C135.539 41.112 135.395 41.656 135.395 42.232C135.395 43.288 135.715 44.056 136.355 44.536C136.995 45.016 137.811 45.256 138.803 45.256ZM165.905 49.576C164.305 49.576 162.801 49.304 161.393 48.76C160.017 48.216 158.817 47.416 157.793 46.36C156.769 45.304 155.969 44.008 155.393 42.472C154.817 40.936 154.529 39.192 154.529 37.24C154.529 35.288 154.849 33.544 155.489 32.008C156.129 30.472 156.993 29.176 158.081 28.12C159.169 27.064 160.417 26.264 161.825 25.72C163.265 25.144 164.769 24.856 166.337 24.856C167.873 24.856 169.185 25.112 170.273 25.624C171.393 26.136 172.385 26.76 173.249 27.496L170.561 31.096C169.921 30.552 169.281 30.136 168.641 29.848C168.033 29.528 167.361 29.368 166.625 29.368C164.705 29.368 163.153 30.088 161.969 31.528C160.785 32.936 160.193 34.84 160.193 37.24C160.193 39.608 160.769 41.512 161.921 42.952C163.105 44.36 164.625 45.064 166.481 45.064C167.409 45.064 168.273 44.872 169.073 44.488C169.905 44.072 170.657 43.592 171.329 43.048L173.585 46.696C172.465 47.656 171.233 48.376 169.889 48.856C168.577 49.336 167.249 49.576 165.905 49.576ZM185.245 49.576C182.717 49.576 180.877 48.776 179.725 47.176C178.573 45.544 177.997 43.224 177.997 40.216V25.432H183.517V39.496C183.517 41.448 183.805 42.824 184.381 43.624C184.957 44.424 185.885 44.824 187.165 44.824C188.189 44.824 189.085 44.568 189.853 44.056C190.653 43.544 191.501 42.712 192.397 41.56V25.432H197.917V49H193.405L192.973 45.544H192.829C191.805 46.76 190.685 47.736 189.469 48.472C188.285 49.208 186.877 49.576 185.245 49.576ZM211.485 49.576C209.853 49.576 208.237 49.272 206.637 48.664C205.069 48.024 203.709 47.24 202.557 46.312L205.149 42.76C206.205 43.592 207.245 44.248 208.269 44.728C209.325 45.176 210.461 45.4 211.677 45.4C212.957 45.4 213.901 45.144 214.509 44.632C215.117 44.088 215.421 43.4 215.421 42.568C215.421 42.088 215.277 41.672 214.989 41.32C214.701 40.936 214.317 40.6 213.837 40.312C213.357 40.024 212.813 39.768 212.205 39.544C211.597 39.288 210.989 39.032 210.381 38.776C209.613 38.488 208.829 38.152 208.029 37.768C207.229 37.384 206.509 36.92 205.869 36.376C205.261 35.832 204.749 35.208 204.333 34.504C203.949 33.768 203.757 32.904 203.757 31.912C203.757 29.832 204.525 28.136 206.061 26.824C207.597 25.512 209.693 24.856 212.349 24.856C213.981 24.856 215.453 25.144 216.765 25.72C218.077 26.296 219.213 26.952 220.173 27.688L217.629 31.048C216.797 30.44 215.949 29.96 215.085 29.608C214.253 29.224 213.373 29.032 212.445 29.032C211.261 29.032 210.381 29.288 209.805 29.8C209.261 30.28 208.989 30.888 208.989 31.624C208.989 32.104 209.117 32.52 209.373 32.872C209.661 33.192 210.029 33.48 210.477 33.736C210.925 33.992 211.437 34.232 212.013 34.456C212.621 34.68 213.245 34.904 213.885 35.128C214.685 35.416 215.485 35.752 216.285 36.136C217.085 36.488 217.805 36.936 218.445 37.48C219.117 38.024 219.645 38.696 220.029 39.496C220.445 40.264 220.653 41.192 220.653 42.28C220.653 43.304 220.445 44.264 220.029 45.16C219.645 46.024 219.069 46.792 218.301 47.464C217.533 48.104 216.573 48.616 215.421 49C214.269 49.384 212.957 49.576 211.485 49.576Z" fill="white"/>
<rect x="22.9166" y="62.0928" width="55.4037" height="6.48177" rx="3" transform="rotate(-45 22.9166 62.0928)" fill="#F3C9A1"/>
<ellipse cx="31.5585" cy="57.5577" rx="5.26644" ry="5.55902" transform="rotate(-45 31.5585 57.5577)" fill="#5FC6F2"/>
<ellipse cx="56.9505" cy="32.1657" rx="5.26644" ry="5.55902" transform="rotate(-45 56.9505 32.1657)" fill="#5FC6F2"/>
<rect x="12.0312" y="51.2075" width="55.4037" height="6.48177" rx="3" transform="rotate(-45 12.0312 51.2075)" fill="#F3C9A1"/>
<ellipse cx="33.735" cy="34.3421" rx="5.26644" ry="5.55902" transform="rotate(-45 33.735 34.3421)" fill="#85DE83"/>
<ellipse cx="46.4309" cy="21.6461" rx="5.26644" ry="5.55902" transform="rotate(-45 46.4309 21.6461)" fill="#85DE83"/>
<rect x="1.71875" y="40.895" width="55.4037" height="6.48177" rx="3" transform="rotate(-45 1.71875 40.895)" fill="#F3C9A1"/>
<ellipse cx="10.5193" cy="36.5186" rx="5.26644" ry="5.55902" transform="rotate(-45 10.5193 36.5186)" fill="#F2715F"/>
<ellipse cx="23.2154" cy="23.8225" rx="5.26644" ry="5.55902" transform="rotate(-45 23.2154 23.8225)" fill="#F2715F"/>
<ellipse cx="35.9113" cy="11.1266" rx="5.26644" ry="5.55902" transform="rotate(-45 35.9113 11.1266)" fill="#F2715F"/>
</svg>
